inDegrees=no
num_controls=7
num_derivatives=13
num_iterations=38
num_multipliers=7
num_parameters=0
num_slacks=7
num_states=26
objective=0.426203
objective_accelerations=0.058410
objective_balance=0.001200
objective_effort=0.015559
objective_height=0.345098
objective_ligament=0.005937
solver_duration=563.847927
status=Solve_Succeeded
success=true
DataType=double
version=3
OpenSimVersion=4.5
endheader
time	/jointset/ground_pelvis/pelvis_tilt/value	/jointset/ground_pelvis/pelvis_tx/value	/jointset/ground_pelvis/pelvis_ty/value	/jointset/hip_l/hip_flexion_l/value	/jointset/hip_l/hip_adduction_l/value	/jointset/hip_l/hip_rotation_l/value	/jointset/back/lumbar_extension/value	/jointset/patellofemoral_l/patellar_flexion_l/value	/jointset/knee_l/knee_flexion_l/value	/jointset/knee_l/knee_adduction_l/value	/jointset/knee_l/knee_rotation_l/value	/jointset/ankle_l/ankle_angle_l/value	/jointset/subtalar_l/subtalar_angle_l/value	/jointset/ground_pelvis/pelvis_tilt/speed	/jointset/ground_pelvis/pelvis_tx/speed	/jointset/ground_pelvis/pelvis_ty/speed	/jointset/hip_l/hip_flexion_l/speed	/jointset/hip_l/hip_adduction_l/speed	/jointset/hip_l/hip_rotation_l/speed	/jointset/back/lumbar_extension/speed	/jointset/patellofemoral_l/patellar_flexion_l/speed	/jointset/knee_l/knee_flexion_l/speed	/jointset/knee_l/knee_adduction_l/speed	/jointset/knee_l/knee_rotation_l/speed	/jointset/ankle_l/ankle_angle_l/speed	/jointset/subtalar_l/subtalar_angle_l/speed	/forceset/tau_hip_flexion_l	/forceset/tau_hip_adduction_l	/forceset/tau_hip_rotation_l	/forceset/tau_knee_flexion_l	/forceset/tau_ankle_angle_l	/forceset/tau_subtalar_angle_l	/forceset/tau_lumbar_extension	lambda_cid13_p0	lambda_cid13_p1	lambda_cid13_p2	lambda_cid13_p3	lambda_cid13_p4	lambda_cid13_p5	lambda_cid14_p0	/jointset/ground_pelvis/pelvis_tilt/accel	/jointset/ground_pelvis/pelvis_tx/accel	/jointset/ground_pelvis/pelvis_ty/accel	/jointset/hip_l/hip_flexion_l/accel	/jointset/hip_l/hip_adduction_l/accel	/jointset/hip_l/hip_rotation_l/accel	/jointset/back/lumbar_extension/accel	/jointset/patellofemoral_l/patellar_flexion_l/accel	/jointset/knee_l/knee_flexion_l/accel	/jointset/knee_l/knee_adduction_l/accel	/jointset/knee_l/knee_rotation_l/accel	/jointset/ankle_l/ankle_angle_l/accel	/jointset/subtalar_l/subtalar_angle_l/accel	gamma_cid13_p0	gamma_cid13_p1	gamma_cid13_p2	gamma_cid13_p3	gamma_cid13_p4	gamma_cid13_p5	gamma_cid14_p0
1.5	-0.3495465488271008	0.05581547973069794	0.7893645674200382	1.013956835493964	-0.3553296868825171	-0.04777917949646608	-0.3269989196577656	0.8280873439665796	0.828087343966859	-0.0285304361297611	-0.1658012713331008	0.2841514264201161	0.1625025295915525	0.5020138137286612	0.2694804279317951	0.5041154871519545	-2.339074975227478	0.00598256997681931	-0.570099576923513	0.6111460794781765	-2.223281051782504	-2.223281051782702	-0.3104889263588066	0.06189505596106416	-0.5559769678725862	-0.2178875525542854	-0.1358007662232336	0.08419356500669195	-0.001346806637335009	-0.1223432966525156	-0.03943475133705901	-0.01696005509393171	0.1277633441529132	-38.53622993763346	15.06455593195497	-3.769427956549976	0.4212326309969819	-428.6953160664704	-20.4499606625976	-9.603443328378102	0.6162222711246582	0.5107612839967175	-0.7789904060962446	-1.219924640409215	0.2927599729056151	-0.4954324255518019	1.565525535878922	-1.213386284837743	-1.213386284837754	-0.06665693673866924	0.3166265391049031	-0.6621435610954413	0.352786104652734	5.606013851467626e-07	-5.889069020464812e-07	-7.546746419681121e-06	-4.072282057681647e-07	1.509330236086797e-06	1.763201374082537e-06	8.123522300576738e-07
1.51	-0.3444956499498545	0.05853541279856112	0.7943657872074654	0.9905066675160396	-0.3552577740337591	-0.05349788155870001	-0.3208110864574963	0.8057958999329338	0.805795899933153	-0.03164787279038241	-0.165165130598055	0.2785583989615478	0.160337672602597	0.5080727405805467	0.2744561531594117	0.4960167337988566	-2.350617628895967	0.008410066368224386	-0.5736088974216136	0.6263235079151424	-2.234690479751378	-2.234690479751278	-0.3129342306999548	0.06534493485276198	-0.5625351291396455	-0.2150362634416416	-0.1314280595892786	0.08282664165700554	-0.0003234719793999348	-0.1189872506924295	-0.03980844143380547	-0.01794547234202818	0.1240859150529224	-38.51857093435914	15.24663610182579	-3.521128945351971	0.8047630302621767	-425.3876576654081	-20.37409267397936	-10.51678095213366	0.5867878141007227	0.4834062486018312	-0.8417666115496372	-1.070211582050859	0.2203993143956661	-0.2730129429817904	1.479293598040657	-1.057288847075176	-1.057288847030442	-0.3241048258966153	0.3596003513577047	-0.6386434434297491	0.2593327997921851	5.524680205476936e-07	-3.185602075052335e-07	-7.36927278626988e-06	-3.596299687251729e-07	1.541678569756621e-06	2.066954883808695e-06	8.011415506598493e-07
1.52	-0.3393869498197298	0.06130358873999191	0.7992827296990357	0.9669513178310233	-0.3551610552526522	-0.05925054304212957	-0.3144743905527751	0.7833998480607753	0.7833998480609335	-0.03478789002299514	-0.1644944047166739	0.2729025916835252	0.1582029350018137	0.5135740643076824	0.2791290026453189	0.4872600279805283	-2.360111316643726	0.01094375644514146	-0.5768914611614185	0.6409186203695427	-2.244202619486774	-2.244202619486377	-0.3150050407648458	0.06881208523068945	-0.5685329317634464	-0.2118636749201102	-0.127055352955336	0.08145971830730932	0.0006998626787603962	-0.1156312047323492	-0.04018213153056038	-0.01893088959014803	0.1204084859529157	-38.49655497474391	15.42675402491816	-3.271142659790371	1.138441553171573	-422.0078502236939	-20.40942565542459	-11.42729272015259	0.5047016461743274	0.450186135655032	-0.9105808991423283	-0.8101314562631095	0.3139987100080261	-0.4500810738927621	1.449062339365648	-0.8339286381421163	-0.833928638142112	0.008241918512765661	0.3200808363508037	-0.5500718324434855	0.4170459864303546	5.384775905351586e-07	1.963090165861792e-07	-7.15074608000616e-06	-2.779038332266463e-07	1.558055106539408e-06	2.437235371200723e-06	8.087945387891818e-07
1.53	-0.3342260125078366	0.06411693634225446	0.8041089460534758	0.9433109906544019	-0.355039014744002	-0.06503442458306634	-0.3079951844633954	0.7609178569294868	0.7609178569296539	-0.03794800059378007	-0.1637889744437295	0.2671893943925701	0.1561007331372069	0.5185087434997399	0.2834842412480342	0.4778823071791697	-2.367611668887513	0.01343339344692661	-0.5796174950279882	0.654785459090571	-2.251891061112634	-2.251891061112694	-0.3171701614375713	0.07242140805763828	-0.5740283946761311	-0.2085951873598077	-0.12238008554082	0.07962245007916004	0.001868683528755511	-0.113063153602381	-0.03986504435334419	-0.02010386512900754	0.1165008591513794	-38.29202199006848	15.70034629766129	-3.086294468609664	1.417637005083346	-418.9395614219083	-20.42429547370802	-12.33363429090433	0.4721963458365733	0.4197318890468215	-0.9661966011089657	-0.6685464178178946	0.2127165492382595	-0.1428195903002148	1.334923875554274	-0.6907903399687498	-0.690790340037161	-0.351902353764616	0.4022618087436347	-0.5375089040178069	0.2795625002723685	5.182640285208165e-07	9.709834283246395e-07	-6.888600483836684e-06	-1.599168056191142e-07	1.557461609129719e-06	2.878200772362738e-06	8.364901736661188e-07
1.54	-0.3290188593460232	0.06697214416383729	0.8088384194138079	0.9196059480934559	-0.3548928237945444	-0.07083735747208503	-0.301381424139393	0.7383680836989299	0.7383680836990087	-0.04113436503056569	-0.1630432701817049	0.261423597395807	0.1540307786200929	0.5228172342964232	0.2875010465093706	0.4679114291588786	-2.37305439350656	0.01577384460765667	-0.5807017307849792	0.6678294672949405	-2.257759039344927	-2.257759039345444	-0.3202558138542458	0.07686688299965513	-0.579052872922286	-0.2054142054218053	-0.1177048181262033	0.07778518185120395	0.003037504377023167	-0.1104951024723373	-0.03954795717605201	-0.02127684066754221	0.1125932323498842	-38.08207367789842	15.97196488073074	-2.899953749379966	1.649512197411922	-415.7853366009498	-20.54586978189419	-13.23524416199373	0.3794639670991931	0.3824994673794894	-1.029212342928859	-0.3986059313150853	0.2841615417971326	-0.1217214519771117	1.284496236033699	-0.4698359594287232	-0.4698359594287227	-0.1758644302770413	0.4873112593643623	-0.4558748991371768	0.3995448619704419	3.252202274951346e-07	2.969717914150782e-06	-4.491507113498834e-06	1.980179175118087e-07	1.125868455770956e-06	2.978189860681687e-06	7.336246505263164e-07
1.55	-0.3237719677035651	0.06986580081915612	0.8134652626456357	0.8958577107808606	-0.3547214917630878	-0.07665887003222499	-0.2946407568074532	0.715769882080472	0.7157698820803392	-0.0443415088122957	-0.1622583355711336	0.2556111438394577	0.151996184156123	0.5264756999725614	0.291173723349952	0.4573679342620823	-2.376254469186859	0.01848042298431704	-0.5834215035794837	0.680184473678595	-2.261534068136626	-2.261534068136713	-0.3212483832329227	0.08018172929027087	-0.583326026042948	-0.20149039840639	-0.1133968322455787	0.07591051748063121	0.004130570645533787	-0.1077611406014856	-0.03960240405075219	-0.02249620945923909	0.1089798234668252	-38.01543358905246	16.28014244258372	-2.70952770219666	1.942029283653502	-413.0083012259758	-20.61535000784411	-14.13243467302238	0.34622408259452	0.3514045838071166	-1.080374098085967	-0.2299413913895273	0.2607358386396664	-0.3199882804007888	1.193074026812053	-0.2793218284962556	-0.27932182843182	-0.07086145446740309	0.2634933546940792	-0.3959550972290047	0.3892758806169673	-6.695406630447095e-08	6.378782485338742e-06	3.654173879459194e-07	8.324141159196666e-07	1.976887422969853e-07	2.685314936377124e-06	4.803299670628881e-07
1.56	-0.3184910541614173	0.07279453480116259	0.8179839797214903	0.8720876261104451	-0.3545237279772482	-0.08250215693776841	-0.287780125174227	0.6931443330761158	0.6931443330759882	-0.04756055993988156	-0.1614382680897535	0.2497593748361676	0.1500009232141663	0.5296216142376943	0.294516511846899	0.4462861979641677	-2.37742386506722	0.02106019548256228	-0.5850565998625519	0.6918223275535077	-2.263228516506561	-2.26322851650622	-0.3226372831237837	0.08389345721226366	-0.5869159623115386	-0.1975475010193744	-0.1090888463650435	0.07403585310997471	0.005223636915924028	-0.1050271787306794	-0.03965685092548523	-0.02371557825108693	0.1053664145836879	-37.94650709161079	16.58804020379047	-2.519195371649108	2.237687441842925	-410.1846294786228	-20.66405967973836	-15.02614541566063	0.2769536848977983	0.3165217986529018	-1.136860623152502	0.007530028672533291	0.2588003661139945	0.09521385031011401	1.141065734285178	-0.0537198750762423	-0.05371987507624225	-0.2551305327139002	0.5666875856397897	-0.3192315287225206	0.4033629362906204	-2.307794688855381e-07	7.738188571642718e-06	2.323079139133789e-06	1.08978437741782e-06	-1.79912418576352e-07	2.579051291588643e-06	3.751167897371564e-07
1.57	-0.3131814224967924	0.07575491913359898	0.8223893114564321	0.8483160864109401	-0.3543012475202251	-0.08835334836496786	-0.2808071261532236	0.6705119727053884	0.6705119727054304	-0.05079817897917102	-0.160577116536086	0.2438747729882239	0.1480444300616721	0.5321913565920867	0.2974890254147994	0.4347041316520481	-2.37650515375815	0.02345383364921651	-0.5852145639506136	0.7026184283994261	-2.262902805552479	-2.262902805552301	-0.3247633276516778	0.08827544512885882	-0.5899013914431342	-0.1936996488734344	-0.1045416276522499	0.07207721199364434	0.006133476240754845	-0.102761806059478	-0.0393991867829069	-0.02497565589564343	0.1015500299978976	-37.80485242424373	16.91922632401192	-2.353526938881289	2.55082579332169	-407.7165255977367	-20.74704381915497	-15.90832764388268	0.2299897653258513	0.2770672950692929	-1.18022033055971	0.1908869761164524	0.2317532917883505	-0.07578841037263825	1.025025021973466	0.1267291922893606	0.1267291922650772	-0.1719766408704479	0.3647536085566459	-0.2725366007027671	0.3823361035719053	-1.091687574434352e-07	6.535521551841741e-06	6.566624525005877e-07	8.758722177788487e-07	1.307096113010964e-07	2.706051746195261e-06	4.550054950835436e-07
1.58	-0.3078494923577219	0.07874291883355618	0.8266765543891901	0.8245651028833284	-0.3540544091315701	-0.09420701680742843	-0.2737309375713213	0.647893071966578	0.6478930719666978	-0.054053185509536	-0.1596739852603788	0.2379634492498907	0.1461277833806034	0.5340813091311492	0.3000395853510577	0.4226684375273436	-2.373312630685389	0.02593178180973708	-0.5855520029189947	0.7124602397345076	-2.260536590132841	-2.260536590132825	-0.3261147813012863	0.09228940160094985	-0.592260340387713	-0.1895782067344356	-0.09999440893944096	0.07011857087743512	0.007043315564927871	-0.1004964333882253	-0.03914152264027655	-0.02623573354000248	0.09773364541207705	-37.66462294248104	17.25118422072571	-2.188578732429248	2.86066135269545	-405.2660882802404	-20.86581567740011	-16.77051921215959	0.1409957218314858	0.2321310723247771	-1.227586185669491	0.4622923814107234	0.2756623648873078	0.05931887424618253	0.9502078321176176	0.3543810180350631	0.3543810180350607	-0.1002123570568565	0.4930812967389547	-0.193935491318784	0.4580809349025236	-6.045885413533608e-08	5.904311345486824e-06	-1.039071358968605e-07	7.661050374751771e-07	2.479907565672333e-07	2.675015219978074e-06	4.863662839287602e-07
1.59	-0.3025021576646009	0.08175433497586415	0.8308412763908968	0.8008576626750722	-0.3537820482373882	-0.1000651456626935	-0.2665608746340715	0.6253084648181285	0.6253084648182164	-0.05731729174245163	-0.158732622817615	0.2320320225071417	0.1442542481357703	0.5352760336420976	0.3021752762159154	0.4102138704934849	-2.367801832823531	0.028545512028061	-0.5860035024762273	0.7213998563871834	-2.256028887543067	-2.256028887543117	-0.3266589722050542	0.09597632476740929	-0.5939063648149275	-0.1850929307535844	-0.09554582291756267	0.06804439627242607	0.007850775998235578	-0.09844836995360909	-0.03862375201100961	-0.02754980258720437	0.09403474982521935	-37.4646504791957	17.61047238025132	-2.04436992060267	3.065473204701416	-403.2045696261981	-20.98995351527714	-17.60682294280737	0.09227171323856551	0.1941963590670878	-1.263702530146431	0.6515018574049314	0.2541960043486204	-0.08651661416400033	0.842964881934587	0.5522714188405949	0.5522714188307115	-0.02340172640964695	0.3056479322676038	-0.1319245472473133	0.4480973114980359	-1.106857618662365e-07	6.048649671665801e-06	3.6488719473986e-07	7.97677471983691e-07	1.028807012894618e-07	2.429499934071449e-06	4.518677575223916e-07
